<svg xmlns="http://www.w3.org/2000/svg" width="631.83" height="588.12" viewBox="0 0 631.83 588.12">
  <g id="undraw_job_hunt_re_q203" transform="translate(0 -117)">
    <path id="Path_1027" data-name="Path 1027" d="M642.137,799.922c.76.8,1.55,1.59,2.35,2.38h91.22c.75-.77,1.49-1.56,2.23-2.38.03-.03.06-.07.09-.1,9.91-10.98,16.15-26.94,20.04-43.77.25-1.02.47-2.05.69-3.09,1.02-4.73,1.85-9.51,2.53-14.25.12-.82.24-1.64.34-2.46.92-6.81,1.54-13.51,1.94-19.8.05-.81.1-1.6.15-2.39a324.822,324.822,0,0,0,.02-37.6s-.12,0-.35.01c-.67.03-2.28.1-4.65.24-6.53.4-18.85,1.4-33.34,3.76-.79.13-1.59.27-2.39.41a252.166,252.166,0,0,0-36.17,8.76c-.74.25-1.47.5-2.21.75l-.01.05-9.07,45.51-3.76-40.51c-2.99,1.35-5.9,2.79-8.69,4.33-.78.43-1.54.86-2.29,1.3a72.111,72.111,0,0,0-17.17,13.54C613.887,747.582,620.257,777.052,642.137,799.922Z" transform="translate(-525.507 -97.182)" fill="#fce8e9"/>
    <path id="Path_1028" data-name="Path 1028" d="M656.678,742.214l-1.581,1.752c-18.279,20.458-29.188,39.448-32.549,56.719-.053.251-.09.5-.144.752l1.169.221,1.127.2c3.43-18.83,16.2-38.3,32.14-56.144.508-.58,1.024-1.169,1.557-1.742,6.814-7.5,14.14-14.687,21.548-21.411.569-.525,1.154-1.052,1.739-1.578,9.824-8.825,19.707-16.808,28.521-23.538.621-.479,1.25-.949,1.872-1.411,14.965-11.329,26.577-18.839,29.165-20.485.312-.206.489-.315.529-.341l-.613-.978v-.017l-.621-.986c-.04.027-.634.388-1.706,1.088-4.028,2.6-14.856,9.744-28.326,19.9-.6.461-1.235.932-1.855,1.41-7.158,5.454-14.988,11.7-22.894,18.543q-2.983,2.572-5.818,5.137c-.594.518-1.179,1.045-1.748,1.57Q666.175,731.781,656.678,742.214Z" transform="translate(-501.928 -97.182)" fill="#fff"/>
    <path id="Path_1029" data-name="Path 1029" d="M625.567,678.532c.27.65.56,1.3.86,1.94a62.383,62.383,0,0,0,8.69,13.75c.51.6,1.03,1.21,1.57,1.81q2.19,2.415,4.66,4.67a62.6,62.6,0,0,0,23.4,13.36c.28.09.55.18.83.26-.05.79-.1,1.57-.15,2.38-.28-.08-.55-.16-.83-.25a64.85,64.85,0,0,1-24.81-14.02,66.927,66.927,0,0,1-4.97-4.99c-.539-.59-1.06-1.2-1.56-1.81a64.417,64.417,0,0,1-9.22-14.75c-.28-.64-.56-1.28-.83-1.93C624.007,678.812,624.8,678.672,625.567,678.532Z" transform="translate(-426.538 -97.182)" fill="#fff"/>
    <path id="Path_1030" data-name="Path 1030" d="M627.658,687.872c.12.59.26,1.18.41,1.77a62.567,62.567,0,0,0,16.68,29.67c.57.57,1.15,1.13,1.75,1.67.17.17.36.35.54.51a63.023,63.023,0,0,0,55.82,14.76c.23-.04.47-.1.7-.15-.12.82-.23,1.65-.36,2.47-.23.05-.45.1-.68.14a65.359,65.359,0,0,1-57.039-15.49c-.24-.22-.49-.43-.72-.66-.6-.56-1.18-1.12-1.76-1.68a65.029,65.029,0,0,1-17.15-30.44q-.225-.9-.42-1.8C626.168,688.382,626.908,688.122,627.658,687.872Z" transform="translate(-466.738 -97.182)" fill="#fff"/>
    <path id="Path_1031" data-name="Path 1031" d="M630.737,698.082c-.01.56-.01,1.13,0,1.69a62.7,62.7,0,0,0,17.16,42.44c.56.6,1.14,1.18,1.72,1.76.63.61,1.26,1.22,1.91,1.8a63.162,63.162,0,0,0,74.87,7.19,6.7,6.7,0,0,0,.58-.34c-.24,1.06-.48,2.1-.74,3.14-.18.1-.35.2-.53.29a65.5,65.5,0,0,1-75.74-8.54c-.65-.59-1.3-1.18-1.91-1.8-.6-.57-1.17-1.15-1.74-1.75a65.251,65.251,0,0,1-17.87-42.89q-.03-.81-.03-1.62C629.177,698.982,629.957,698.532,630.737,698.082Z" transform="translate(-493.148 -97.182)" fill="#fff"/>
    <path id="Path_1038" data-name="Path 1038" d="M241.843,378.689H417.628a45.551,45.551,0,0,0,45.5-45.5V239.7a5.525,5.525,0,0,0-5.518-5.518H241.843a5.525,5.525,0,0,0-5.518,5.518V373.171a5.525,5.525,0,0,0,5.518,5.518Z" transform="translate(144.266 -97.182)" fill="#fff"/>
    <path id="Path_1039" data-name="Path 1039" d="M241.843,379.189H417.628a46.052,46.052,0,0,0,46-46V239.7a6.025,6.025,0,0,0-6.018-6.018H241.843a6.025,6.025,0,0,0-6.018,6.018V373.171a6.025,6.025,0,0,0,6.018,6.018ZM457.61,235.678a4.023,4.023,0,0,1,4.018,4.018v93.493a44.05,44.05,0,0,1-44,44H241.843a4.023,4.023,0,0,1-4.018-4.018V239.7a4.023,4.023,0,0,1,4.018-4.018Z" transform="translate(144.266 -97.182)" fill="#ccc"/>
    <path id="Path_1040" data-name="Path 1040" d="M284.494,279.255H414.959a4.516,4.516,0,1,0,0-9.032H284.494a4.516,4.516,0,1,0,0,9.032Z" transform="translate(144.266 -97.182)" fill="#ccc"/>
    <path id="Path_1041" data-name="Path 1041" d="M284.494,310.366H414.959a4.516,4.516,0,1,0,0-9.032H284.494a4.516,4.516,0,1,0,0,9.032Z" transform="translate(144.266 -97.182)" fill="#ccc"/>
    <path id="Path_1042" data-name="Path 1042" d="M284.494,342.366H414.959a4.516,4.516,0,1,0,0-9.032H284.494a4.516,4.516,0,1,0,0,9.032Z" transform="translate(144.266 -97.182)" fill="#ccc"/>
    <ellipse id="Ellipse_202" data-name="Ellipse 202" cx="26.968" cy="26.969" rx="26.968" ry="26.969" transform="translate(577.894 117)" fill="#673039"/>
    <path id="Path_1043" data-name="Path 1043" d="M454.175,255.187a3,3,0,0,1-2.4-1.2l-7.357-9.81a3,3,0,1,1,4.8-3.6l4.813,6.418,12.363-18.544a3,3,0,1,1,4.992,3.328l-14.715,22.072a3,3,0,0,1-2.413,1.335Z" transform="translate(147.008 -97.182)" fill="#fff"/>
    <path id="Path_1044" data-name="Path 1044" d="M392.283,503.1H638.247a45.551,45.551,0,0,0,45.5-45.5V320.089a7.121,7.121,0,0,0-7.113-7.113H392.283a7.121,7.121,0,0,0-7.112,7.113v175.9a7.121,7.121,0,0,0,7.112,7.113Z" transform="translate(-239.11 -97.182)" fill="#fff"/>
    <path id="Path_1045" data-name="Path 1045" d="M392.283,503.6H638.247a46.052,46.052,0,0,0,46-46V320.089a7.621,7.621,0,0,0-7.613-7.613H392.283a7.621,7.621,0,0,0-7.612,7.613v175.9a7.621,7.621,0,0,0,7.612,7.613ZM676.634,314.476a5.619,5.619,0,0,1,5.613,5.613V457.6a44.05,44.05,0,0,1-44,44H392.283a5.619,5.619,0,0,1-5.612-5.613v-175.9a5.619,5.619,0,0,1,5.612-5.613Z" transform="translate(-239.11 -97.182)" fill="#ccc"/>
    <path id="Path_1046" data-name="Path 1046" d="M448.492,372.222H620.426a5.952,5.952,0,0,0,0-11.9H448.492a5.952,5.952,0,1,0,0,11.9Z" transform="translate(-239.111 -97.182)" fill="#ccc"/>
    <path id="Path_1047" data-name="Path 1047" d="M448.492,413.221H620.426a5.952,5.952,0,0,0,0-11.9H448.492a5.952,5.952,0,0,0,0,11.9Z" transform="translate(-239.111 -97.182)" fill="#ccc"/>
    <path id="Path_1048" data-name="Path 1048" d="M448.492,455.393H620.426a5.952,5.952,0,0,0,0-11.9H448.492a5.952,5.952,0,1,0,0,11.9Z" transform="translate(-239.111 -97.182)" fill="#ccc"/>
    <circle id="Ellipse_203" data-name="Ellipse 203" cx="34.139" cy="34.139" r="34.139" transform="translate(400.09 192.42)" fill="#673039"/>
    <path id="Path_1049" data-name="Path 1049" d="M672.871,341.509a3.8,3.8,0,0,1-3.038-1.519l-9.314-12.418a3.8,3.8,0,0,1,6.076-4.557l6.093,8.124,15.65-23.474a3.8,3.8,0,1,1,6.32,4.213L676.03,339.819a3.8,3.8,0,0,1-3.054,1.69Z" transform="translate(-243.299 -97.182)" fill="#fff"/>
    <path id="Path_1050" data-name="Path 1050" d="M491.729,677.866l13.889,4.645,24.527-51.363-20.5-6.856Z" transform="translate(-407.057)" fill="#ffb6b6"/>
    <path id="Path_1051" data-name="Path 1051" d="M728.082,787.327,772.867,799.3l.189-.566c1.557-4.656,1.208-6.641-.984-11.034a18.26,18.26,0,0,0-10.618-9.228h0l-6.1-8.942-17.339,1.1-3.909-1.307Z" transform="translate(-651.455 -97.182)" fill="#2f2e41"/>
    <path id="Path_1052" data-name="Path 1052" d="M542.851,690.925H557.5l6.968-56.49h-21.62Z" transform="translate(-492.495)" fill="#ffb6b6"/>
    <path id="Path_1053" data-name="Path 1053" d="M756.8,799.3h47.223v-.6c0-4.91-1.912-6.526-5.384-10a18.261,18.261,0,0,0-13-5.383h0l-8.626-6.544-16.094,6.545H756.8Z" transform="translate(-710.177 -97.182)" fill="#2f2e41"/>
    <path id="Path_1054" data-name="Path 1054" d="M733.117,335.5a10.7,10.7,0,0,1-14.37,7.907l-16.907,17.65L688.607,353.4l24.227-24.593a10.754,10.754,0,0,1,20.283,6.692Z" transform="translate(-571.3 -97.182)" fill="#ffb6b6"/>
    <path id="Path_1055" data-name="Path 1055" d="M476.937,327.072l-7.622-7.886,44.078-40.823,44.363-39.612,12.287,17.362-46.489,43.394Z" transform="translate(-424.541)" fill="#e4e4e4"/>
    <path id="Path_1056" data-name="Path 1056" d="M753.127,692.156c0-9.911-.2-16.979-.354-22.66-.461-16.623-.585-21.092,5.776-49.719l1.634-7.352,9.635,28.9a90.538,90.538,0,0,1,4.657,28.6L759.62,759.057h30.362l22.237-96.36.01-29.475a10.873,10.873,0,0,0,0-15.112l-7.388-44.159-7.478-59.513H715.457S701,544.4,715.367,574.119V692.192l7.422,81.64H745.7Z" transform="translate(-673.647 -97.182)" fill="#2f2e41"/>
    <path id="Path_1057" data-name="Path 1057" d="M737.107,521.641l76.613-6.384.4-.033L808,405.17a34.611,34.611,0,0,0-23.459-30.986v-7.7a7.2,7.2,0,0,0-7.19-7.19H766.16a7.151,7.151,0,0,0-6.431,3.974l-5.474,10.947-20.7,16.559c-10.223,8.179-2,90.176-1.553,94.5l-5,25.033a9.505,9.505,0,0,0,9.3,11.368Q736.7,521.674,737.107,521.641Z" transform="translate(-690.29 -97.182)" fill="#e4e4e4"/>
    <path id="Path_1058" data-name="Path 1058" d="M712.886,550.7a10.7,10.7,0,0,1-.2-16.4l-7.6-23.231,12.991-8.062,10.274,32.957A10.754,10.754,0,0,1,712.886,550.7Z" transform="translate(-584.936 -97.182)" fill="#ffb6b6"/>
    <path id="Path_1059" data-name="Path 1059" d="M473.773,295.588l10.547-3.516,15.234,67.968,14.031,67.594-21.1,3.105L476.12,358.868Z" transform="translate(-372.541)" fill="#e4e4e4"/>
    <circle id="Ellipse_204" data-name="Ellipse 204" cx="25.162" cy="25.162" r="25.162" transform="translate(64.552 204.751)" fill="#ffb6b6"/>
    <path id="Path_1060" data-name="Path 1060" d="M792.324,314.773a18.894,18.894,0,0,0-2.014-6.833c-1.176,2.558-4.845,3-7.357,1.729s-4.194-3.691-5.989-5.86c-4.736-5.724-11.248-10.367-18.629-11.213s-15.516,2.88-18.3,9.766c-1.251-1.738-3.922-1.931-5.81-.921a10.45,10.45,0,0,0-4.076,4.829,30.766,30.766,0,0,0-1.023,24.617c3.108,7.865,10.783,18.461,18.7,21.429,4.807,1.8,9.663-.5,14.776,0-.268-5.58-1.35-12.464-1.617-18.044-.147-3.056-.168-6.475,1.919-8.711a6.025,6.025,0,0,1,9.192,1.073,13.844,13.844,0,0,1,1.726-4.921,4.708,4.708,0,0,1,4.42-2.264c2.135.35,3.453,2.541,5.413,3.459a5.882,5.882,0,0,0,6.537-1.5,8.894,8.894,0,0,0,2.136-6.634Z" transform="translate(-668.754 -97.182)" fill="#2f2e41"/>
    <path id="Path_1061" data-name="Path 1061" d="M498.809,358.563l29.551,59.1H506.2Z" transform="translate(-412.352)" opacity="0.1"/>
    <path id="Path_1062" data-name="Path 1062" d="M395.577,801.112a1.186,1.186,0,0,0,1.19,1.19h564.29a1.19,1.19,0,0,0,0-2.38H396.767a1.186,1.186,0,0,0-1.19,1.19Z" transform="translate(-395.577 -97.182)" fill="#cacaca"/>
  </g>
</svg>
