<svg width="151" height="131" viewBox="0 0 151 131" fill="none" xmlns="http://www.w3.org/2000/svg">
<circle cx="3.05104" cy="3.05104" r="3.05104" fill="#014C4B" fill-opacity="0.2"/>
<circle cx="3.05104" cy="44.3574" r="3.05104" fill="#014C4B" fill-opacity="0.2"/>
<circle cx="3.05104" cy="106.317" r="3.05104" fill="#014C4B" fill-opacity="0.2"/>
<circle cx="3.05104" cy="23.7044" r="3.05104" fill="#014C4B" fill-opacity="0.2"/>
<circle cx="3.05104" cy="85.6638" r="3.05104" fill="#014C4B" fill-opacity="0.2"/>
<circle cx="3.05104" cy="65.0108" r="3.05104" fill="#014C4B" fill-opacity="0.2"/>
<circle cx="3.05104" cy="126.97" r="3.05104" fill="#014C4B" fill-opacity="0.2"/>
<circle cx="85.6637" cy="3.05104" r="3.05104" fill="#014C4B" fill-opacity="0.2"/>
<circle cx="85.6637" cy="44.3574" r="3.05104" fill="#014C4B" fill-opacity="0.2"/>
<circle cx="85.6637" cy="106.317" r="3.05104" fill="#014C4B" fill-opacity="0.2"/>
<circle cx="85.6637" cy="23.7044" r="3.05104" fill="#014C4B" fill-opacity="0.2"/>
<circle cx="85.6637" cy="85.6638" r="3.05104" fill="#014C4B" fill-opacity="0.2"/>
<circle cx="85.6637" cy="65.0105" r="3.05104" fill="#014C4B" fill-opacity="0.2"/>
<circle cx="85.6637" cy="126.97" r="3.05104" fill="#014C4B" fill-opacity="0.2"/>
<circle cx="23.7042" cy="3.05104" r="3.05104" fill="#014C4B" fill-opacity="0.2"/>
<circle cx="23.7042" cy="44.3574" r="3.05104" fill="#014C4B" fill-opacity="0.2"/>
<circle cx="23.7042" cy="106.317" r="3.05104" fill="#014C4B" fill-opacity="0.2"/>
<circle cx="23.7042" cy="23.7044" r="3.05104" fill="#014C4B" fill-opacity="0.2"/>
<circle cx="23.7042" cy="85.6638" r="3.05104" fill="#014C4B" fill-opacity="0.2"/>
<circle cx="23.7042" cy="65.0105" r="3.05104" fill="#014C4B" fill-opacity="0.2"/>
<circle cx="23.7042" cy="126.97" r="3.05104" fill="#014C4B" fill-opacity="0.2"/>
<circle cx="106.317" cy="3.05104" r="3.05104" fill="#014C4B" fill-opacity="0.2"/>
<circle cx="106.317" cy="44.3574" r="3.05104" fill="#014C4B" fill-opacity="0.2"/>
<circle cx="106.317" cy="106.317" r="3.05104" fill="#014C4B" fill-opacity="0.2"/>
<circle cx="106.317" cy="23.7044" r="3.05104" fill="#014C4B" fill-opacity="0.2"/>
<circle cx="106.317" cy="85.6638" r="3.05104" fill="#014C4B" fill-opacity="0.2"/>
<circle cx="106.317" cy="65.0108" r="3.05104" fill="#014C4B" fill-opacity="0.2"/>
<circle cx="106.317" cy="126.97" r="3.05104" fill="#014C4B" fill-opacity="0.2"/>
<circle cx="44.3573" cy="3.05104" r="3.05104" fill="#014C4B" fill-opacity="0.2"/>
<circle cx="44.3573" cy="44.3574" r="3.05104" fill="#014C4B" fill-opacity="0.2"/>
<circle cx="44.3573" cy="106.317" r="3.05104" fill="#014C4B" fill-opacity="0.2"/>
<circle cx="44.3573" cy="23.7041" r="3.05104" fill="#014C4B" fill-opacity="0.2"/>
<circle cx="44.3573" cy="85.6638" r="3.05104" fill="#014C4B" fill-opacity="0.2"/>
<circle cx="44.3573" cy="65.0108" r="3.05104" fill="#014C4B" fill-opacity="0.2"/>
<circle cx="44.3573" cy="126.97" r="3.05104" fill="#014C4B" fill-opacity="0.2"/>
<circle cx="126.971" cy="3.05104" r="3.05104" fill="#014C4B" fill-opacity="0.2"/>
<circle cx="126.97" cy="44.3574" r="3.05104" fill="#014C4B" fill-opacity="0.2"/>
<circle cx="126.97" cy="106.317" r="3.05104" fill="#014C4B" fill-opacity="0.2"/>
<circle cx="126.97" cy="23.7041" r="3.05104" fill="#014C4B" fill-opacity="0.2"/>
<circle cx="126.971" cy="85.6638" r="3.05104" fill="#014C4B" fill-opacity="0.2"/>
<circle cx="126.971" cy="65.0108" r="3.05104" fill="#014C4B" fill-opacity="0.2"/>
<circle cx="126.97" cy="126.97" r="3.05104" fill="#014C4B" fill-opacity="0.2"/>
<circle cx="65.0105" cy="3.05104" r="3.05104" fill="#014C4B" fill-opacity="0.2"/>
<circle cx="65.0105" cy="44.3574" r="3.05104" fill="#014C4B" fill-opacity="0.2"/>
<circle cx="65.0105" cy="106.317" r="3.05104" fill="#014C4B" fill-opacity="0.2"/>
<circle cx="65.0105" cy="23.7044" r="3.05104" fill="#014C4B" fill-opacity="0.2"/>
<circle cx="65.0105" cy="85.6638" r="3.05104" fill="#014C4B" fill-opacity="0.2"/>
<circle cx="65.0105" cy="65.0108" r="3.05104" fill="#014C4B" fill-opacity="0.2"/>
<circle cx="65.0105" cy="126.97" r="3.05104" fill="#014C4B" fill-opacity="0.2"/>
<circle cx="147.624" cy="3.05104" r="3.05104" fill="#014C4B" fill-opacity="0.2"/>
<circle cx="147.623" cy="44.3574" r="3.05104" fill="#014C4B" fill-opacity="0.2"/>
<circle cx="147.624" cy="106.317" r="3.05104" fill="#014C4B" fill-opacity="0.2"/>
<circle cx="147.624" cy="23.7044" r="3.05104" fill="#014C4B" fill-opacity="0.2"/>
<circle cx="147.624" cy="85.6638" r="3.05104" fill="#014C4B" fill-opacity="0.2"/>
<circle cx="147.624" cy="65.0108" r="3.05104" fill="#014C4B" fill-opacity="0.2"/>
<circle cx="147.623" cy="126.97" r="3.05104" fill="#014C4B" fill-opacity="0.2"/>
</svg>
