<svg id="MC" xmlns="http://www.w3.org/2000/svg" width="146" height="170" viewBox="0 0 146 170">
  <g id="Tier-2-Product-Page-_-MC-Email-Design" data-name="Tier-2-Product-Page-&gt;-MC-Email-Design" transform="translate(-946 -579)">
    <path id="Fill-136-Copy" d="M995.722,660.54c1.5,2.985,2.125,8.789-.656,11.4a2.889,2.889,0,0,1-3.724,1.912,8.3,8.3,0,0,1-2.275-1.12,4.6,4.6,0,0,1-1.376-1.12c-2.948-2.88-4.464-7.621-3.294-11.23.809-2.5,3-4.665,5.939-4.347C992.864,656.3,994.686,658.481,995.722,660.54Zm-4.28-24.443c5.177-3.735,10.658,2.914,11.423,7.274.779,4.44-1.789,11.86-8.011,10.455-2.757-.624-3.681-2.978-4.2-5.324-.05-.22-.106-.447-.163-.671C988.522,643.955,988.185,638.451,991.441,636.1Zm-6.924-20.432a6.964,6.964,0,0,0-3.508,5.617,10.543,10.543,0,0,0,.536,3.456,15,15,0,0,0,1.374,3.965,3.137,3.137,0,0,0,1.771,1.314,4.7,4.7,0,0,0,1.617.8,6.27,6.27,0,0,0,5.781-1.585,6.76,6.76,0,0,0,1.721-6.487C992.971,618.753,989.559,613.043,984.517,615.665Zm-15.527,3.352c4.354-.341,6.826,4.723,7,8.1a5.433,5.433,0,0,1-2.524,5.214,4.873,4.873,0,0,1-5.746-.578c-1.344-1.282-1.691-3.337-2-5.041C964.3,624.058,964.778,619.347,968.99,619.016Zm-6.594,14.99a4.354,4.354,0,0,0-3.979,1.981,2.691,2.691,0,0,0-.987,1.169c-.761,1.808-.37,4.089.067,5.943a8.5,8.5,0,0,0,2.417,4.618,5.221,5.221,0,0,0,5.614.792c1.938-.959,2.463-3.01,2.47-4.911C968.021,640.206,966.985,634.243,962.4,634.007ZM964.788,654c-2.931.006-4.5,2.047-5.054,4.532a1.972,1.972,0,0,0-.127.193c-1.135,2.345-.451,5.271.21,7.679.594,2.174,1.422,4.583,3.525,5.86a4.956,4.956,0,0,0,5.808-.441c1.712-1.5,1.893-3.791,1.843-5.867C970.906,662.177,970.459,653.99,964.788,654ZM980,669.28c-4.314-1.342-6.034,2.388-5.982,5.857-.154,3.538.9,7.764,2.72,10a4.634,4.634,0,0,0,5.709,1.387c2.122-1.075,2.5-3.278,2.549-5.321C985.073,677.5,984.618,670.713,980,669.28Zm17.234,11.175c5.334-2.38,7.987,5.164,8.583,9.166.606,4.052.026,12.49-6.188,9.891-2.469-1.036-3.291-3.893-4.042-6.273A32.957,32.957,0,0,1,994,684.205a2.42,2.42,0,0,1,1.624-2.42A3.793,3.793,0,0,1,997.231,680.455Zm9.476-20a5.187,5.187,0,0,0-3.16,4.281c-1.438,4.37.133,11.4,2.747,14.441,1.655,1.918,4.8,2.554,6.825.767,2.176-1.918,1.949-5.734,1.782-8.314C1014.633,667.613,1013.161,657.775,1006.707,660.456Zm7.273-21.258c2.365.717,3.48,3.115,3.843,5.31.507,3.065.092,10.122-3.477,11.26a2.768,2.768,0,0,1-3.125,1.087c-4.952-1.824-4.846-10.389-3.22-14.425A5,5,0,0,1,1013.98,639.2Zm-5.8-18.032a4.471,4.471,0,0,0-6.487.488c-2.841,3.592-2.009,11.239,1.836,13.889a2.454,2.454,0,0,0,1.781.372,4.71,4.71,0,0,0,4.726-1.783c1.425-2.021.962-4.828.584-7.1C1010.279,625.028,1009.783,622.628,1008.175,621.167Zm-3.714-14.215a11.488,11.488,0,0,1-.387,7.929,3.256,3.256,0,0,1-2.488,2.067,5.548,5.548,0,0,1-5.64-2.561,7.464,7.464,0,0,1-1.879-4.73c-.265-2.732.118-5.668,3.524-6.49A5.84,5.84,0,0,1,1004.461,606.952Zm12.413-2.862c1.9,1.667,1.992,4.444,2.093,6.726.094,2.194.1,5.167-1.6,6.886a4.571,4.571,0,0,1-5.293.794,2.912,2.912,0,0,1-.674-.111c-4.72-1.4-3.819-10.34-1.506-13.329A4.852,4.852,0,0,1,1016.874,604.09Zm4.51,19.048c-2.475.516-3.786,2.662-4.2,5.121a13.639,13.639,0,0,0-.049,4.117c.228,2.22.754,5.05,2.226,6.892a4.605,4.605,0,0,0,6.355.813c2.054-1.529,2.264-4.175,2.285-6.421C1028.033,630.031,1027.564,621.838,1021.384,623.138Zm5.29,25.865c5.444.178,5.626,8.223,5.162,11.908-.289,2.279-.66,5.393-2.959,6.628-2.146,1.151-4.555,0-5.769-1.841-2.558-3.864-2.79-10.343-.683-14.359a1.786,1.786,0,0,1,.8-.758A3.834,3.834,0,0,1,1026.674,649Zm-4.3,24.4c5.41-2.232,7.225,5.376,7.555,9.052a11.806,11.806,0,0,1-1.3,7.166c-1.32,2.168-4.132,3.205-6.326,1.6-2.048-1.5-2.446-4.351-2.818-6.67-.437-2.722-.961-5.549.336-8.066a1.35,1.35,0,0,1,.113-.154A4.165,4.165,0,0,1,1022.373,673.4Zm-5.744,14.692a4.206,4.206,0,0,0-2.87.367,2.762,2.762,0,0,0-1.828,1.664c-1.635,4.55-1.189,12.807,1.913,16.779,1.347,1.724,3.728,2.883,5.8,1.45,2.025-1.4,2.192-4.863,2.316-7.047C1022.173,697.408,1021.757,689.026,1016.629,688.094Zm-28.355,2.365c2.183,1.146,3.064,4.253,3.445,6.581.407,2.493.52,5.721-.7,8.016a4.117,4.117,0,0,1-2.26,1.969,2.474,2.474,0,0,1-3.316.551,7.776,7.776,0,0,1-2.4-3.507c-1.883-3.145-2.954-7.935-1.043-10.324a6.021,6.021,0,0,1,.513-1.183C983.728,690.486,986.049,689.29,988.274,690.459Zm-12.831-.649c.8,2.94,1.334,9.489-2.743,9.929a3.37,3.37,0,0,1-2,.19c-2.526-.516-3.526-3.364-4.11-5.487a11.566,11.566,0,0,1-.172-6.594,4.372,4.372,0,0,1,5.358-2.655C973.892,685.855,974.928,687.9,975.443,689.81Zm-16.992-14.666a4.073,4.073,0,0,0-4.778,2.672,14,14,0,0,0-.578,6.266c.188,2.393.659,4.88,3.04,5.786a2.084,2.084,0,0,0,2.122-.425c3.5-.467,4.128-7.076,3.556-9.939C961.417,677.526,960.389,675.71,958.451,675.144Zm-5.379-15.965a3.86,3.86,0,0,0-5.353-.2,2.693,2.693,0,0,0-1.106,1.443c-.073.2-.123.428-.183.646-.04.135-.08.274-.113.413-.043.164-.077.328-.113.495l-.04.284c-.52,3.126.147,6.768,2.648,8.81,1.389,1.137,3.924,1.468,4.966-.4a9.449,9.449,0,0,0,1.149-5.9C954.734,663.045,954.325,660.509,953.072,659.179ZM963.7,699.111a2.644,2.644,0,0,0-2.628-1,3.129,3.129,0,0,0-3.9,2.464c-.639,4.606.477,9.976,3.761,13.452a3.268,3.268,0,0,0,5.4-1.147A15.07,15.07,0,0,0,963.7,699.111ZM978.221,705c5.3.182,6.516,8.385,6.729,12.161.133,2.316.143,5.144-1.862,6.789a4.819,4.819,0,0,1-6.3-.271c-2.414-2.144-3.4-6.016-3.583-9.713a10.231,10.231,0,0,1,.21-4.933c.045-.35.1-.69.161-1.011a3.434,3.434,0,0,1,2.393-2.494A4.238,4.238,0,0,1,978.221,705Zm15.837,1.548a4.5,4.5,0,0,0-1.126.746,2.443,2.443,0,0,0-1.367,1.078c-2.608,4.291-1.932,11.887,1.847,15.526,1.762,1.7,4.649,2.865,7.016,1.493,2.54-1.477,2.622-5.094,2.561-7.573C1002.893,713.879,1000.829,703.507,994.058,706.552Zm17.176,5.6c5.133-3.9,8.721,3.034,9.457,7.15.429,2.392.612,5.343-.824,7.469a4.808,4.808,0,0,1-6.406,1.595,4.868,4.868,0,0,1-.909-.7,2.436,2.436,0,0,1-.52-.449,9.734,9.734,0,0,1-1.8-3.489c-.172-.482-.328-.957-.466-1.405a14.377,14.377,0,0,1-.7-5.755A5.526,5.526,0,0,1,1011.234,712.152Zm20.343-8.907c2.387.79,3.272,3.013,3.73,5.134.441,2.057,1.135,4.334.305,6.385a4.372,4.372,0,0,1-1.461,1.876,3.369,3.369,0,0,1-3.526,1.263,5.056,5.056,0,0,1-2.131-1.169,8.689,8.689,0,0,1-2.974-4.645,8.276,8.276,0,0,1-.469-3.615,6.278,6.278,0,0,1,.5-2.507A4.931,4.931,0,0,1,1031.577,703.245Zm5.655-16.694c6.123-2.8,7.347,5.768,7.623,9.419.175,2.266.531,5.231-1.379,6.966a4.52,4.52,0,0,1-6.133-.3c-2.64-2.533-4.294-8.71-2.744-12.422A4.573,4.573,0,0,1,1037.232,686.552Zm6.175-15.912a4.156,4.156,0,0,0-5.419-1.053,4.778,4.778,0,0,0-1.727,1.893c-2.632,2.8-.7,9.242,1.783,11.54a3.636,3.636,0,0,0,5.508-.632,10.931,10.931,0,0,0,1.448-5.882C1044.983,674.55,1044.677,672.2,1043.407,670.64Zm.648-17.358a3.818,3.818,0,0,0-5.836.147,5.929,5.929,0,0,0-.927,3.424,9.774,9.774,0,0,0-.055,4.481c.266,1.828.736,4.1,2.477,5.139a3.86,3.86,0,0,0,5.3-1.5c1.021-1.721,1.063-4.082.924-6C1045.806,657.06,1045.436,654.746,1044.055,653.282Zm-6.1-14.411a4.24,4.24,0,0,0-5.385-1.455c-3.482,1.619-2.684,6.486-1.85,9.319a3.1,3.1,0,0,0,2.86,2.265,5.641,5.641,0,0,0,.581-.049c2.93.47,5-2.836,4.83-5.438A10.155,10.155,0,0,0,1037.954,638.871Zm2.12-19.487a4.415,4.415,0,0,0-5.976-.4c-1.7,1.414-2.036,3.976-2.089,6.01-.057,2.207.113,5.119,1.985,6.674a3.538,3.538,0,0,0,1.726.73,3.809,3.809,0,0,0,5.09-.828c1.206-1.776,1.273-4.492,1.143-6.526C1041.826,623.064,1041.556,620.91,1040.074,619.384Zm-11.354-17.11c2.4.935,2.957,3.645,3.208,5.884.314,2.794-.284,9.87-3.878,10.432-.043.071-.069.145-.119.215a2.707,2.707,0,0,1-3.641.771c-2.3-1.789-2.283-4.461-2.289-7.166-.007-2.425.063-5.476,1.219-7.676C1024.25,602.784,1026.444,601.384,1028.72,602.274Zm23.007,30.508a4.868,4.868,0,0,0-6.01.584,5.832,5.832,0,0,0-1.6,4.151,19.176,19.176,0,0,0,.271,5.855c.375,2.154,1.205,4.531,3.589,5.341,5.722,1.943,6.194-6.5,5.98-9.767C1053.823,636.827,1053.7,634.147,1051.727,632.781Zm7.056,22.29c1.419,1.98,1.253,4.88,1.153,7.191-.156,3.6-1.426,13.869-7.429,9.8-3.866-2.622-4.2-11.1-2.623-15a2.649,2.649,0,0,1,.678-.95,5.164,5.164,0,0,1,1.566-2.192A4.693,4.693,0,0,1,1058.783,655.071Zm-5.461,22.333c-3.466,1.379-4.49,5.489-4.244,9.473-.335,4.47.338,9.418,3.285,11.974a4.629,4.629,0,0,0,6.406-.289c2.011-2.125,2.2-6.128,2.23-8.827C1061.04,686.008,1060.05,674.735,1053.323,677.4Zm13.588-12.485c6.4-3.931,8.82,5.76,9.043,9.979.149,2.81.01,6.626-1.515,9.116a4.5,4.5,0,0,1-6.928.671,6.5,6.5,0,0,1-1.285-1.9,3.012,3.012,0,0,1-.539-.665c-1.683-2.96-1.744-7.067-1.667-10.4C1064.079,669.193,1064.553,666.367,1066.911,664.919Zm5.566-25.724a4.868,4.868,0,0,0-6.911.536,7.564,7.564,0,0,0-1.531,2.86c-1.278,2.456-1.121,5.811-.839,8.445.272,2.544.836,5.908,3.312,7.24,6.7,3.6,8.644-7.207,8.484-11.467C1074.892,644.156,1074.629,641.041,1072.477,639.2Zm-7.947-20.143c2.066,1.684,2.311,4.613,2.451,7,.189,3.245-.94,13.007-6.629,10.558a2.563,2.563,0,0,1-1.136-.368c-2.814-1.85-2.86-5.3-3.07-8.264-.182-2.616-.5-5.789,1.245-8.017A5.145,5.145,0,0,1,1064.53,619.052Zm-17.012-10.929c-3.342.634-4.125,3.718-4.334,6.46-.031.406-.055.845-.072,1.293-.486,3.888.527,8.287,4.45,9.036,1.679.323,3.687-.224,4.187-1.99C1052.772,619.3,1055.4,606.622,1047.518,608.123Zm-6.03-12.038c1.239,1.3,1.414,3.06,1.49,4.789a10.054,10.054,0,0,1-.837,5.18,3.61,3.61,0,0,1-2.526,1.771,2.826,2.826,0,0,1-2.964-.646c-1.493-1.448-1.62-3.91-1.648-5.894-.022-1.667.032-3.72,1.185-5.025A3.592,3.592,0,0,1,1041.489,596.084Zm14.838-9.541c1.655,1.992,1.635,5.213,1.671,7.66.036,2.687-.408,5.813-2.265,7.891-1.575,1.765-4.248,2.661-6.307,1.1a4.582,4.582,0,0,1-.4-.4,3.265,3.265,0,0,1-.68-.715c-1.509-2.22-1.452-5.744-1.214-8.319a13.019,13.019,0,0,1,2.46-7.021A4.283,4.283,0,0,1,1056.327,586.543Zm11.287,12.573a5.348,5.348,0,0,0-6.931.332c-1.907,1.807-2.222,4.824-2.407,7.223,0,.039,0,.075-.007.111-.567,3.2-.427,6.8,2.281,8.413a2.816,2.816,0,0,0,1.2.533c.066.019.119.052.189.068,6.049,1.645,8.085-7.07,8.064-10.938A7.06,7.06,0,0,0,1067.614,599.117Zm14.019,15.163c1.61,2.33,1.484,5.651,1.18,8.312-.344,3.036-1.119,6.774-3.087,9.283-1.658,2.107-5.027,3.049-7.149.935-1.34-1.333-1.818-3.606-1.988-5.726-1.467-4.829-.208-11.733,3.926-14.27A5.218,5.218,0,0,1,1081.633,614.28ZM1086.865,634a5.546,5.546,0,0,0-5.2,4.419c-.031.108-.058.237-.086.352-2.141,4.011-2.223,10.615.463,14.2a4.657,4.657,0,0,0,6.214,1.357c2.415-1.5,2.758-4.7,3.184-7.191C1092.1,643.278,1093.377,633.8,1086.865,634Zm1.235,25.326a4.874,4.874,0,0,0-6.527-.15,6.182,6.182,0,0,0-1.109,1.284,2.739,2.739,0,0,0-.67.956,7.53,7.53,0,0,0-.466,1.721,10.862,10.862,0,0,0,.687,7.285,4.612,4.612,0,0,0,2.92,3.26c5.479,1.817,7.265-4.675,7.047-8.275C1089.863,663.449,1089.632,660.86,1088.1,659.33ZM1086.86,680.4c-3.02-1.319-5.906.812-6.909,3.38a11.565,11.565,0,0,0,.243,9.727,2.039,2.039,0,0,0,.359.444c.479,2.562,1.462,4.941,4.417,5.881a3.563,3.563,0,0,0,4.276-2,17.072,17.072,0,0,0,1.678-9.186C1090.667,685.881,1089.924,681.74,1086.86,680.4Zm-12.1,12.425a5.051,5.051,0,0,0-7.005-.743c-3.218,2.594-3.326,9.119-1.821,13.317a7.3,7.3,0,0,0,2.871,4.867,5.358,5.358,0,0,0,6.886-1.318c1.765-2.308,1.3-5.557,1.089-8.2C1076.573,698.177,1076.558,694.97,1074.762,692.827Zm-21.21,11.367c-1.459-.454-3.329.057-3.749,1.636a14.822,14.822,0,0,0-.383,2.018,7.89,7.89,0,0,0-.417,2.872c.125,3.537.359,7.33,1.724,10.64a2.371,2.371,0,0,0,1.256,1.346,6.449,6.449,0,0,0,.725.914,4.513,4.513,0,0,0,6.434.063c2.049-2.068,1.9-5.971,1.818-8.585C1060.84,711.12,1059.885,702.611,1053.553,704.194Zm-14.329,13.682a5.382,5.382,0,0,0-2.5,3.561c-.034.065-.082.113-.112.181a11.786,11.786,0,0,0-.374,6.267,14.144,14.144,0,0,0,1.541,6.5c.031.055.075.084.105.133a6.1,6.1,0,0,0,2.391,2.81,4.928,4.928,0,0,0,6.538-1.471c1.534-2.3,1.214-5.625,1-8.211C1047.49,723.628,1045.789,714.075,1039.224,717.876Zm-15.162,11.1c-2.218,1.612-2.062,4.84-2.058,7.268,0,2.717-.137,6.2,1.972,8.227.07.065.153.114.23.172a4.7,4.7,0,0,0,1.715,1.684c6.018,3.257,7.451-6.088,7-9.787S1029.061,725.329,1024.062,728.972Zm-16.218,1.935c-4.616,2.953-2.836,11.855-.116,15.471a2.106,2.106,0,0,0,1.014.726,6.221,6.221,0,0,0,.571.607,4.351,4.351,0,0,0,6.237-.056c1.826-2.026,1.519-5.477,1.235-7.978C1016.316,735.526,1013.549,727.258,1007.843,730.907Zm-9.24,4.848c-.6-2.116-1.642-4.508-3.785-5.391a4.717,4.717,0,0,0-5.44,1.358c-1.477,1.663-1.568,3.858-1.189,5.965.4,2.274.892,5.384,2.641,6.982a3.143,3.143,0,0,0,1.739.827,5.067,5.067,0,0,0,.685.272C998.923,747.468,999.634,739.38,998.6,735.755Zm-15.631-4.212A4.547,4.547,0,0,0,975,734.8a9.553,9.553,0,0,0,.8,4.556,5.561,5.561,0,0,0,2.114,2.879,4.772,4.772,0,0,0,5.726-.391c1.583-1.462,1.445-3.8,1.222-5.728A7.8,7.8,0,0,0,982.972,731.543ZM970.6,723.08a4.093,4.093,0,0,0-5.233-1.688,3.867,3.867,0,0,0-1.616,1.625c-.039.06-.072.126-.108.189l-.039.076c-.046.088-.1.173-.134.265s-.052.186-.085.277c-.023.063-.039.126-.062.192a8.148,8.148,0,0,0,1.966,7.84,3.937,3.937,0,0,0,5.482.066c1.344-1.272,1.36-3.045,1.095-4.714A11.441,11.441,0,0,0,970.6,723.08Zm40.671-131.541a3.45,3.45,0,0,0-5.568-1.717,9.531,9.531,0,0,0-3.382,5.064c-.568,2.244-.6,5.2,1.708,6.543.071.039.141.065.215.1a2.823,2.823,0,0,0,2.478,1.466C1012.62,602.626,1012.613,595.746,1011.272,591.539Zm12.684-3.4a4.505,4.505,0,0,0-6.691.816c-1.371,1.966-1.808,5.188-.4,7.175a1.066,1.066,0,0,0,.083.091,15.808,15.808,0,0,0,1.422,4.2,3.489,3.489,0,0,0,5.675.225C1026.146,597.34,1027.148,591.23,1023.956,588.143Zm8.5-8.786a8.277,8.277,0,0,0-4.117,4.6,5.2,5.2,0,0,0,.708,5.056c.244,1.944.99,3.866,2.972,4.656,3.019,1.21,5.391-1.124,5.8-3.915a22.309,22.309,0,0,0-.535-8.2A3.4,3.4,0,0,0,1032.458,579.357Zm-56.546,56.309c-2.369,1.1-3.658,3.54-4.071,6.256-1.349,2.487-.766,6.069-.371,8.658.4,2.608,1.405,5.8,4.364,6.924,7.425,2.821,9.24-7.118,9.162-11.431-.071-4-2-13.686-9.085-10.407Z" fill="#bf672b" fill-rule="evenodd"/>
  </g>
</svg>
