<svg xmlns="http://www.w3.org/2000/svg" width="54.279" height="44.638" viewBox="0 0 54.279 44.638">
  <g id="_5e95b326e20474712fa160f8_quote.svg-1621538737996" data-name="5e95b326e20474712fa160f8_quote.svg-1621538737996" transform="translate(0.001)">
    <path id="Path_109" data-name="Path 109" d="M2,30.891A10.57,10.57,0,0,0,12.747,41.638,10.57,10.57,0,0,0,23.494,30.891a10.357,10.357,0,0,0-5.757-9.468L24.9,3H14.794L5.326,21.423C3.151,25.645,2,28.332,2,30.891Zm27.379,0A10.57,10.57,0,0,0,40.126,41.638,10.494,10.494,0,0,0,50.873,30.891a10.357,10.357,0,0,0-5.757-9.468L52.28,3H42.173L32.705,21.423C30.531,25.645,29.379,28.332,29.379,30.891Z" transform="translate(1.998 2.997)" fill="#e78b79"/>
    <path id="Path_110" data-name="Path 110" d="M13.2,19.422,19.979,2H14.014L5.1,19.337C2.9,23.623,2,25.891,2,27.891a8.572,8.572,0,0,0,8.748,8.748A8.572,8.572,0,0,0,19.5,27.891a8.36,8.36,0,0,0-4.625-7.666ZM12.794,0H22.9L15.737,18.423a10.357,10.357,0,0,1,5.757,9.468A10.57,10.57,0,0,1,10.747,38.638,10.57,10.57,0,0,1,0,27.891c0-2.559,1.151-5.246,3.326-9.468ZM40.582,19.422,47.358,2H41.393l-8.91,17.338c-2.208,4.286-3.1,6.554-3.1,8.554a8.572,8.572,0,0,0,8.748,8.748,8.5,8.5,0,0,0,8.748-8.748,8.36,8.36,0,0,0-4.625-7.666ZM40.173,0H50.28L43.116,18.423a10.357,10.357,0,0,1,5.757,9.468A10.494,10.494,0,0,1,38.126,38.638,10.57,10.57,0,0,1,27.379,27.891c0-2.559,1.151-5.246,3.326-9.468Z" fill="rgb(255, 210, 189)" fill-rule="evenodd"/>
  </g>
</svg>
