<?xml version="1.0" encoding="UTF-8" standalone="no"?>
<svg
   xmlns:dc="http://purl.org/dc/elements/1.1/"
   xmlns:cc="http://creativecommons.org/ns#"
   xmlns:rdf="http://www.w3.org/1999/02/22-rdf-syntax-ns#"
   xmlns:svg="http://www.w3.org/2000/svg"
   xmlns="http://www.w3.org/2000/svg"
   xmlns:sodipodi="http://sodipodi.sourceforge.net/DTD/sodipodi-0.dtd"
   xmlns:inkscape="http://www.inkscape.org/namespaces/inkscape"
   viewBox="0 0 940 200"
   version="1.1"
   id="svg865"
   sodipodi:docname="tagmango_Typeface (1).svg"
   width="940"
   height="200"
   inkscape:version="1.0.2 (e86c8708, 2021-01-15)">
  <metadata
     id="metadata869">
    <rdf:RDF>
      <cc:Work
         rdf:about="">
        <dc:format>image/svg+xml</dc:format>
        <dc:type
           rdf:resource="http://purl.org/dc/dcmitype/StillImage" />
        <dc:title>tagmango_Typeface</dc:title>
      </cc:Work>
    </rdf:RDF>
  </metadata>
  <sodipodi:namedview
     pagecolor="#ffffff"
     bordercolor="#666666"
     borderopacity="1"
     objecttolerance="10"
     gridtolerance="10"
     guidetolerance="10"
     inkscape:pageopacity="0"
     inkscape:pageshadow="2"
     inkscape:window-width="1792"
     inkscape:window-height="1120"
     id="namedview867"
     showgrid="false"
     inkscape:zoom="0.64122192"
     inkscape:cx="574.69734"
     inkscape:cy="496.8341"
     inkscape:window-x="0"
     inkscape:window-y="0"
     inkscape:window-maximized="0"
     inkscape:current-layer="svg865" />
  <defs
     id="defs852">
    <style
       id="style833">.cls-1{fill:#212121;}.cls-2{fill:url(#linear-gradient);}</style>
    <linearGradient
       id="linear-gradient"
       x1="797.59998"
       y1="975.70001"
       x2="1694.1899"
       y2="975.70001"
       gradientTransform="matrix(1,-0.01,0.01,1,-5.66,7.27)"
       gradientUnits="userSpaceOnUse">
      <stop
         offset="0"
         stop-color="#e6492e"
         id="stop835" />
      <stop
         offset="0.26"
         stop-color="#e6472e"
         id="stop837" />
      <stop
         offset="0.34"
         stop-color="#e6422e"
         id="stop839" />
      <stop
         offset="0.44"
         stop-color="#e7472e"
         id="stop841" />
      <stop
         offset="0.57"
         stop-color="#e9572c"
         id="stop843" />
      <stop
         offset="0.71"
         stop-color="#ec702a"
         id="stop845" />
      <stop
         offset="0.86"
         stop-color="#f19327"
         id="stop847" />
      <stop
         offset="1"
         stop-color="#f7bb23"
         id="stop849" />
    </linearGradient>
  </defs>
  <title
     id="title854">tagmango_Typeface</title>
  <g
     id="Page_2"
     data-name="Page 2"
     transform="matrix(0.71674593,0,0,0.71674593,-273.94386,-573.3864)">
    <path
       class="cls-1"
       d="M 441.14,873.81 V 901 H 414 v 50.81 a 29.76,29.76 0 0 0 9,21.74 29.15,29.15 0 0 0 21.46,9 v 27.17 a 55.56,55.56 0 0 1 -40.75,-16.84 56.2,56.2 0 0 1 -16.85,-41 V 805.89 H 414 v 67.92 z"
       id="path856" />
    <path
       class="cls-1"
       d="m 539.49,1009.66 c -18.74,0 -34.77,-6.52 -48.09,-19.83 -13.32,-13.31 -19.83,-29.35 -19.83,-48.09 0,-18.74 6.52,-34.78 19.83,-48.09 13.31,-13.31 29.35,-19.84 48.09,-19.84 a 67.43,67.43 0 0 1 40.76,13.59 v -13.59 h 27.17 v 135.85 h -13.59 l -13.58,-13.58 a 66.34,66.34 0 0 1 -40.76,13.58 z m 0,-27.17 a 40.8,40.8 0 1 0 -28.8,-12 39.6,39.6 0 0 0 28.8,12 z"
       id="path858" />
    <path
       class="cls-1"
       d="m 743.26,996.08 a 67.46,67.46 0 0 1 -40.75,13.58 c -18.75,0 -34.78,-6.52 -48.09,-19.83 -13.31,-13.31 -19.84,-29.35 -19.84,-48.09 0,-18.74 6.52,-34.78 19.84,-48.09 13.32,-13.31 29.34,-19.84 48.09,-19.84 a 66.26,66.26 0 0 1 40.75,13.59 l 13.59,-13.59 h 13.58 v 135.85 c 0,18.48 -6.52,34.51 -19.83,48.09 -13.31,13.31 -29.34,19.84 -48.09,19.84 -18.75,0 -34.78,-6.53 -48.09,-19.84 l 19.29,-19.29 a 40.75,40.75 0 0 0 69.55,-28.8 z m -40.75,-13.59 a 40.82,40.82 0 1 0 -28.8,-12 39.6,39.6 0 0 0 28.8,12 z"
       id="path860" />
    <path
       class="cls-2"
       d="m 893.69,914.71 a 40.69,40.69 0 0 0 -56.78,0.06 c -7.84,7.66 -12.13,16.92 -12.34,27.79 l 0.4,69.55 -27.16,0.16 -0.81,-135.85 13.59,-0.08 13.66,13.51 A 67.39,67.39 0 0 1 864.94,876 c 22.28,-0.13 40.53,8.73 54.49,26.85 13.48,-18.28 31.63,-27.35 54.19,-27.48 18.74,-0.11 34.81,6.31 48.2,19.55 13.39,13.24 20,29.23 20.11,48 l 0.4,67.93 -27.17,0.15 -0.4,-67.92 a 40.750707,40.750707 0 0 0 -81.5,0.48 l 0.39,67.92 -27.17,0.16 -0.39,-67.93 a 38.59,38.59 0 0 0 -12.4,-29 z m 243.73,95.58 c -18.75,0.11 -34.81,-6.31 -48.2,-19.55 -13.39,-13.24 -20,-29.23 -20.12,-48 -0.12,-18.77 6.32,-34.82 19.56,-48.21 13.24,-13.39 29.22,-20 48,-20.11 a 67.45,67.45 0 0 1 40.83,13.34 l -0.08,-13.58 27.17,-0.16 0.79,135.85 -13.58,0.08 -13.66,-13.51 a 66.29,66.29 0 0 1 -40.71,13.85 z m -0.16,-27.17 a 40.8,40.8 0 1 0 -28.87,-11.78 39.56,39.56 0 0 0 28.87,11.78 z m 122,-43.09 0.41,69.55 -27.17,0.16 -0.79,-135.85 13.58,-0.08 13.71,13.51 a 67.36,67.36 0 0 1 40.67,-13.82 c 18.75,-0.11 34.82,6.32 48.21,19.55 13.39,13.23 20,29.23 20.11,48 l 0.4,67.92 -27.17,0.16 -0.4,-67.93 a 40.8,40.8 0 0 0 -41,-40.51 39,39 0 0 0 -28.19,11.57 c -7.85,7.64 -12.15,16.9 -12.36,27.74 z m 244.85,54.54 a 67.43,67.43 0 0 1 -40.67,13.83 c -18.75,0.1 -34.82,-6.32 -48.21,-19.56 -13.39,-13.24 -20,-29.23 -20.11,-48 -0.11,-18.77 6.31,-34.82 19.55,-48.21 13.24,-13.39 29.23,-20 48,-20.11 a 66.28,66.28 0 0 1 40.84,13.35 l 13.5,-13.67 13.59,-0.08 0.79,135.85 c 0.11,18.48 -6.32,34.54 -19.55,48.2 -13.24,13.4 -29.23,20 -48,20.12 -18.77,0.12 -34.81,-6.32 -48.2,-19.56 l 19.17,-19.4 a 40.76,40.76 0 0 0 69.39,-29.2 z m -40.83,-13.34 a 40.82,40.82 0 1 0 -28.87,-11.79 39.63,39.63 0 0 0 28.88,11.79 z M 1625.67,871.6 c 18.74,-0.11 34.81,6.32 48.2,19.55 13.39,13.23 20,29.23 20.12,48 0.12,18.77 -6.32,34.81 -19.56,48.2 -13.24,13.39 -29.22,20 -48,20.12 -18.78,0.12 -34.82,-6.32 -48.21,-19.56 -13.39,-13.24 -20,-29.22 -20.11,-48 -0.11,-18.78 6.32,-34.82 19.55,-48.21 13.23,-13.39 29.26,-19.99 48.01,-20.1 z m 0.63,108.68 a 40.82,40.82 0 1 0 -28.87,-11.79 39.61,39.61 0 0 0 28.87,11.79 z"
       id="path862"
       style="fill:url(#linear-gradient)" />
  </g>
</svg>
