<svg xmlns="http://www.w3.org/2000/svg" width="804.344" height="593.266" viewBox="0 0 804.344 593.266">
  <g id="undraw_gift_re_qr17" transform="translate(0.002 -16.606)">
    <path id="Path_438" data-name="Path 438" d="M176.062,706.849a24.215,24.215,0,0,0,23.383-4.119c8.19-6.874,10.758-18.2,12.847-28.682l6.18-31.017-12.938,8.908c-9.3,6.406-18.818,13.019-25.26,22.3s-9.252,21.947-4.078,31.988" transform="translate(-135 -145.063)" fill="#e6e6e6"/>
    <path id="Path_439" data-name="Path 439" d="M178.06,746.559c-1.628-11.864-3.3-23.881-2.159-35.872,1.015-10.649,4.264-21.049,10.878-29.579a49.2,49.2,0,0,1,12.625-11.44c1.262-.8,2.424,1.2,1.167,2a46.778,46.778,0,0,0-18.5,22.326c-4.029,10.246-4.675,21.416-3.982,32.3.419,6.582,1.311,13.121,2.206,19.653a1.2,1.2,0,0,1-.808,1.422,1.163,1.163,0,0,1-1.423-.808Z" transform="translate(-135 -145.063)" fill="#f2f2f2"/>
    <path id="Path_442" data-name="Path 442" d="M189.781,727.523a17.825,17.825,0,0,0,15.531,8.019c7.864-.373,14.418-5.86,20.317-11.07l17.452-15.409-11.55-.553c-8.306-.4-16.827-.771-24.738,1.793s-15.208,8.726-16.654,16.915" transform="translate(-135 -145.063)" fill="#e6e6e6"/>
    <path id="Path_443" data-name="Path 443" d="M173.457,753.379c7.84-13.871,16.932-29.288,33.181-34.216a37.026,37.026,0,0,1,13.955-1.441c1.482.128,1.112,2.412-.367,2.284a34.4,34.4,0,0,0-22.272,5.892c-6.28,4.275-11.17,10.218-15.308,16.519-2.535,3.861-4.806,7.884-7.076,11.9C174.845,755.606,172.723,754.678,173.457,753.379Z" transform="translate(-135 -145.063)" fill="#f2f2f2"/>
    <rect id="Rectangle_567" data-name="Rectangle 567" width="344" height="293" transform="translate(241.602 315.468)" fill="#c1aeb1"/>
    <path id="Path_1027" data-name="Path 1027" d="M721.6,754.531h-346v-295h346Zm-344-2h342v-291h-342Z" transform="translate(-135 -145.063)" fill="#3f3d56"/>
    <rect id="Rectangle_568" data-name="Rectangle 568" width="86" height="236" transform="translate(370.602 372.468)" fill="#6c63ff"/>
    <rect id="Rectangle_569" data-name="Rectangle 569" width="86" height="236" transform="translate(370.602 372.468)" fill="#673039"/>
    <path id="Path_1028" data-name="Path 1028" d="M242.6,336.968v47.538l343,21.962-1.011-58.658Z" opacity="0.2"/>
    <rect id="Rectangle_570" data-name="Rectangle 570" width="384" height="84" transform="translate(221.602 288.468)" fill="#81464f"/>
    <path id="Path_1029" data-name="Path 1029" d="M741.6,518.531h-386v-86h386Zm-384-2h382v-82h-382Z" transform="translate(-135 -145.063)" fill="#3f3d56"/>
    <rect id="Rectangle_571" data-name="Rectangle 571" width="86" height="91" transform="translate(370.602 280.468)" fill="#673039"/>
    <path id="Path_1030" data-name="Path 1030" d="M539.394,346.188c22.7,33.652,1.312,87.775,1.312,87.775s-58.2-.436-80.9-34.088S458.5,312.1,458.5,312.1,516.693,312.536,539.394,346.188Z" transform="translate(-135 -145.063)" fill="#673039"/>
    <path id="Path_1031" data-name="Path 1031" d="M549.81,346.188c-22.7,33.652-1.312,87.775-1.312,87.775s58.2-.436,80.9-34.088S630.71,312.1,630.71,312.1,572.512,312.536,549.81,346.188Z" transform="translate(-135 -145.063)" fill="#673039"/>
    <circle id="Ellipse_201" data-name="Ellipse 201" cx="9" cy="9" r="9" transform="translate(344.602 208.468)" fill="#fcedd7"/>
    <circle id="Ellipse_202" data-name="Ellipse 202" cx="9" cy="9" r="9" transform="translate(398.602 299.468)" fill="#fcedd7"/>
    <circle id="Ellipse_203" data-name="Ellipse 203" cx="9" cy="9" r="9" transform="translate(398.602 496.468)" fill="#fcedd7"/>
    <circle id="Ellipse_204" data-name="Ellipse 204" cx="6" cy="6" r="6" transform="translate(371.602 244.468)" fill="#fcedd7"/>
    <circle id="Ellipse_205" data-name="Ellipse 205" cx="6" cy="6" r="6" transform="translate(461.602 193.468)" fill="#fcedd7"/>
    <circle id="Ellipse_206" data-name="Ellipse 206" cx="6" cy="6" r="6" transform="translate(422.602 334.468)" fill="#fcedd7"/>
    <circle id="Ellipse_207" data-name="Ellipse 207" cx="6" cy="6" r="6" transform="translate(386.602 412.468)" fill="#fcedd7"/>
    <circle id="Ellipse_208" data-name="Ellipse 208" cx="6" cy="6" r="6" transform="translate(417.602 439.468)" fill="#fcedd7"/>
    <circle id="Ellipse_209" data-name="Ellipse 209" cx="6" cy="6" r="6" transform="translate(410.602 552.468)" fill="#fcedd7"/>
    <path id="Path_1045" data-name="Path 1045" d="M924.018,754.531H135.849a1.013,1.013,0,0,1,0-2H924.018a1.013,1.013,0,0,1,0,2Z" transform="translate(-135 -145.063)" fill="#3f3d56"/>
    <circle id="Ellipse_211" data-name="Ellipse 211" cx="22.028" cy="22.028" r="22.028" transform="translate(208.621 268.177)" fill="#ffb8b8"/>
    <path id="Path_1046" data-name="Path 1046" d="M357.7,565.61q-.416,0-.836-.037A9.868,9.868,0,0,1,348,553.81a9.241,9.241,0,0,1,.242-.938l-32.511-38.451a7.663,7.663,0,0,1-.533-9.134l.059-.072,29.264-28.855A8.459,8.459,0,0,1,356.4,488.407l-.111.108L335.1,508.664l23.2,37.241a9.394,9.394,0,0,1,1.309.161A9.868,9.868,0,0,1,357.7,565.61Z" transform="translate(-135 -145.063)" fill="#ffb8b8"/>
    <path id="Path_1047" data-name="Path 1047" d="M266.928,596.776h11l5.23-42.41H266.926Z" fill="#ffb8b8"/>
    <path id="Path_1048" data-name="Path 1048" d="M399.124,738.25h21.654a13.8,13.8,0,0,1,13.8,13.8v.449H399.124Z" transform="translate(-135 -145.063)" fill="#2f2e41"/>
    <path id="Path_1049" data-name="Path 1049" d="M157.641,581.575l9.448,5.625,26.192-33.764-13.943-8.3Z" fill="#ffb8b8"/>
    <path id="Path_1050" data-name="Path 1050" d="M292.068,722.118,310.673,733.2h0a13.8,13.8,0,0,1,4.8,18.916h0l-.229.385-30.463-18.138Z" transform="translate(-135 -145.063)" fill="#2f2e41"/>
    <path id="Path_1051" data-name="Path 1051" d="M415.518,726.86H403.206a4.029,4.029,0,0,1-4.013-3.609L386.78,606.573a1.346,1.346,0,0,0-2.564-.412l-22.393,49.584L322.179,720.39a4.055,4.055,0,0,1-5.066,1.583l-15.838-6.968a4.037,4.037,0,0,1-1.839-5.765l36.445-61.023L347.058,596.8c-3.515-22.3,11.555-55.447,11.708-55.779l.075-.162,41.512-16.225.208.255c16.371,53.724,26.347,111.54,18.981,198.271a4.063,4.063,0,0,1-4.023,3.7Z" transform="translate(-135 -145.063)" fill="#2f2e41"/>
    <path id="Path_1052" data-name="Path 1052" d="M357.168,546.294l-.193-.406c-.092-.194-9.323-19.663-16.438-40.47a30.691,30.691,0,0,1,2.128-24.6A31.026,31.026,0,0,1,362.45,465.6h0A31.064,31.064,0,0,1,398.5,484.2c5.644,14.114,3.845,29.179,2.152,41.027l-.034.237-.216.1Z" transform="translate(-135 -145.063)" fill="#fc575e"/>
    <path id="Path_1053" data-name="Path 1053" d="M392.357,422.825H357.379V407.579c7.677-3.05,15.19-5.644,19.731,0A15.247,15.247,0,0,1,392.357,422.825Z" transform="translate(-135 -145.063)" fill="#2f2e41"/>
    <path id="Path_1054" data-name="Path 1054" d="M355.443,404.888c-20.91,0-26.763,26.21-26.763,41,0,8.246,3.729,11.2,9.59,12.194l2.07-11.038,4.847,11.513c1.646.008,3.375-.024,5.168-.057L352,455.112l3.665,3.323c14.679.022,26.542,2.162,26.542-12.551C382.2,431.1,377.072,404.888,355.443,404.888Z" transform="translate(-135 -145.063)" fill="#2f2e41"/>
    <path id="Path_1055" data-name="Path 1055" d="M448.387,434.222q.2.365.369.751a9.868,9.868,0,0,1-6.077,13.412,9.232,9.232,0,0,1-.939.237l-18.157,46.966a7.663,7.663,0,0,1-7.76,4.847l-.091-.017-39.353-11.847a8.459,8.459,0,1,1,4.878-16.2l.147.046,27.844,8.94L430.8,443.14a9.386,9.386,0,0,1-.486-1.226,9.868,9.868,0,0,1,18.069-7.692Z" transform="translate(-135 -145.063)" fill="#ffb8b8"/>
    <path id="Path_1056" data-name="Path 1056" d="M798.219,314.932c-14.711-19.687-41.636-24.438-55.016-14.44s-16.453,37.166-1.742,56.853c13.617,18.223,38.288,23.193,51.876,16.366a1.707,1.707,0,0,0-.008.647l.766,3.787a1.728,1.728,0,0,0,2.758,1.019l6.487-5.068a1.728,1.728,0,0,0-.321-2.923l-3.49-1.66a1.709,1.709,0,0,0-.384-.121C809.62,358.319,811.865,333.194,798.219,314.932Z" transform="translate(-216.352 -145.063)" fill="#ccc"/>
    <path id="Path_1057" data-name="Path 1057" d="M766.04,307.5a28.432,28.432,0,0,1,23.812,31.085c-.158,1.66,2.435,1.649,2.592,0A31.088,31.088,0,0,0,766.729,305C765.1,304.722,764.4,307.219,766.04,307.5Z" transform="translate(-135 -145.063)" fill="#fff"/>
    <path id="Path_1058" data-name="Path 1058" d="M307.2,339.624c12.862-20.942,7.332-47.719-6.9-56.46s-40.615-1.563-53.476,19.379c-11.9,19.385-7.412,44.147,3.952,54.253a1.708,1.708,0,0,0-.6.232l-3.237,2.111a1.728,1.728,0,0,0,.071,2.939l7.106,4.157a1.728,1.728,0,0,0,2.6-1.378L256.96,361a1.711,1.711,0,0,0-.03-.4C271.089,366.244,295.267,359.051,307.2,339.624Z" transform="translate(-135 -145.063)" fill="#ccc"/>
    <path id="Path_1059" data-name="Path 1059" d="M302.22,306.975a28.432,28.432,0,0,1-20.092,33.609c-1.6.466-.633,2.872.957,2.409a31.088,31.088,0,0,0,21.712-36.3C304.452,305.073,301.873,305.344,302.22,306.975Z" transform="translate(-135 -145.063)" fill="#fff"/>
    <path id="Path_1060" data-name="Path 1060" d="M950.265,187.99c-1.076-24.553-20.654-43.638-37.34-42.907S878.4,166.537,879.479,191.09c1,22.727,18.588,40.723,33.662,42.73a1.707,1.707,0,0,0-.371.53l-1.5,3.562a1.728,1.728,0,0,0,1.705,2.4l8.215-.537a1.728,1.728,0,0,0,1.38-2.6l-1.95-3.336a1.711,1.711,0,0,0-.25-.316C935.262,230.267,951.262,210.767,950.265,187.99Z" transform="translate(-216.352 41.204)" fill="#673039"/>
    <path id="Path_1061" data-name="Path 1061" d="M927.854,163.732a28.432,28.432,0,0,1,2.181,39.1c-1.065,1.283,1.084,2.734,2.142,1.459a31.088,31.088,0,0,0-2.347-42.234C928.638,160.906,926.652,162.575,927.854,163.732Z" transform="translate(-135 -145.063)" fill="#fff"/>
    <path id="Path_1062" data-name="Path 1062" d="M796.775,258.872a40.784,40.784,0,0,1-31.9-18.9c-.966-1.544-2.226-3.24-1.558-5.141a3.38,3.38,0,0,1,3.5-2.339c1.971.24,3.243,2.168,3.486,4.016.275,2.1-1.2,3.741-3.029,4.52-4.461,1.9-8.962-1.038-12.6-3.385-8.28-5.348-17.387-10.184-27.42-10.794-9.283-.564-19.237,3.076-24.4,11.126-.9,1.408,1.339,2.71,2.238,1.308,5.121-7.983,15.472-10.851,24.473-9.617a47.576,47.576,0,0,1,15.313,5.2c2.474,1.284,4.873,2.707,7.224,4.2a46.1,46.1,0,0,0,7.085,4.062c4.132,1.7,9.6,1.565,12.487-2.343,2.692-3.645.612-9.715-3.892-10.739a6.085,6.085,0,0,0-7.128,7.239c.449,2.147,2.066,4.248,3.317,6a43.38,43.38,0,0,0,32.8,18.17c1.667.082,1.663-2.51,0-2.592Z" transform="translate(-135 41.204)" fill="#ccc"/>
  </g>
</svg>
